<?xml version="1.0" standalone="no"?><!DOCTYPE svg PUBLIC "-//W3C//DTD SVG 1.1//EN" "http://www.w3.org/Graphics/SVG/1.1/DTD/svg11.dtd"><svg t="1528523435836" class="icon" style="" viewBox="0 0 1024 1024" version="1.1" xmlns="http://www.w3.org/2000/svg" p-id="4497" xmlns:xlink="http://www.w3.org/1999/xlink" width="40" height="40"><defs><style type="text/css"></style></defs><path d="M578.56191012 378.87617977h-155.31112423v44.37460612h66.56191011v288.43494448h-66.56191011v44.37460607h221.87303434v-44.37460607h-66.56191011z m-66.56191012-310.62224656a443.74606679 443.74606679 0 1 0 443.74606679 443.74606679 443.74606679 443.74606679 0 0 0-443.74606679-443.74606679z m0 843.11752557a399.37145878 399.37145878 0 1 1 399.37145878-399.37145878 399.37145878 399.37145878 0 0 1-399.37145878 399.37145878z m11.09365199-576.86988513a55.4682581 55.4682581 0 1 0-55.46825811-55.46825811 55.4682581 55.4682581 0 0 0 55.46825811 55.46825811z" fill="#CCCCCC" p-id="4498"></path></svg>