<?xml version="1.0" standalone="no"?><!DOCTYPE svg PUBLIC "-//W3C//DTD SVG 1.1//EN" "http://www.w3.org/Graphics/SVG/1.1/DTD/svg11.dtd"><svg class="icon" width="200px" height="200.00px" viewBox="0 0 1024 1024" version="1.1" xmlns="http://www.w3.org/2000/svg"><path d="M74.09322815 566.24815326a19.60776534 19.60776534 0 0 1-3.26795993-26.1436881l22.87572529-29.4116508a19.60776534 19.60776534 0 0 1 26.14368809-3.26796l199.34562197 137.25436033a49.01941337 49.01941337 0 0 0 55.5553361-3.26795997l535.94559862-441.17473172a19.60776534 19.60776534 0 0 1 26.14368811 0l13.07184545 13.07184255a16.33980539 16.33980539 0 0 1 3.26795993 22.87572816l-3.26795993 3.26795993-575.16113218 578.42909494a32.67961081 32.67961081 0 0 1-46.07825053 2.94116285l-2.94116565-2.94116285z" fill="#D83B35" /></svg>