<?xml version="1.0" standalone="no"?><!DOCTYPE svg PUBLIC "-//W3C//DTD SVG 1.1//EN" "http://www.w3.org/Graphics/SVG/1.1/DTD/svg11.dtd"><svg t="1528422785083" class="icon" style="" viewBox="0 0 1024 1024" version="1.1" xmlns="http://www.w3.org/2000/svg" p-id="4079" xmlns:xlink="http://www.w3.org/1999/xlink" width="28" height="28"><defs><style type="text/css"></style></defs><path d="M844.80955057 955.74606679H179.19044943a110.93651622 110.93651622 0 0 1-110.93651622-110.93651622V179.19044943a110.93651622 110.93651622 0 0 1 110.93651622-110.93651622h665.61910114a110.93651622 110.93651622 0 0 1 110.93651622 110.93651622v665.61910114a110.93651622 110.93651622 0 0 1-110.93651622 110.93651622zM179.19044943 112.62854122a66.56191012 66.56191012 0 0 0-66.56190821 66.56190821v665.61910114a66.56191012 66.56191012 0 0 0 66.56190821 66.56190821h665.61910114a66.56191012 66.56191012 0 0 0 66.56190821-66.56190821V179.19044943a66.56191012 66.56191012 0 0 0-66.56190821-66.56190821z" fill="#CCCCCC" p-id="4080"></path><path d="M214.69013505 548.83092419a13.31238163 13.31238163 0 0 1-2.21872961-17.74984284l15.53111126-19.96857433a13.31238163 13.31238163 0 0 1 17.74984283-2.21872967l135.34255178 93.18667341a33.28095409 33.28095409 0 0 0 37.71841529-2.21872964l363.87177314-299.52859454a13.31238163 13.31238163 0 0 1 17.74984284 0l8.87492237 8.87492041a11.09365199 11.09365199 0 0 1 2.21872961 15.53111322l-2.21872961 2.21872962-390.49653835 392.71526989a22.187304 22.187304 0 0 1-31.28409818 1.99685593l-1.99685783-1.99685593z" fill="#D83B35" p-id="4081"></path></svg>