<?xml version="1.0" standalone="no"?><!DOCTYPE svg PUBLIC "-//W3C//DTD SVG 1.1//EN" "http://www.w3.org/Graphics/SVG/1.1/DTD/svg11.dtd"><svg t="1529634707475" class="icon" style="" viewBox="0 0 1024 1024" version="1.1" xmlns="http://www.w3.org/2000/svg" p-id="5603" xmlns:xlink="http://www.w3.org/1999/xlink" width="154" height="154"><defs><style type="text/css"></style></defs><path d="M512 68.25393321c244.06033644 0 443.74606679 199.68573037 443.74606679 443.74606679s-199.68573037 443.74606679-443.74606679 443.74606679-443.74606679-199.68573037-443.74606679-443.74606679 199.68573037-443.74606679 443.74606679-443.74606679z m0 676.71275125c24.40603363 0 44.37460612-19.96857246 44.37460612-44.37460611s-19.96857246-44.37460612-44.37460612-44.37460608-44.37460612 19.96857246-44.37460612 44.37460608 19.96857246 44.37460612 44.37460612 44.37460611z m-26.62476329-465.93336892c-8.87492047 0-17.74984282 6.65619082-17.74984283 17.74984283v2.21872965l13.31238166 295.09113338c0 4.43746118 4.43746118 8.87492047 8.87492046 8.87492238h42.15587646c4.43746118 0 8.87492047-4.43746118 8.87492238-8.87492238l15.53111128-297.30986303c0-8.87492047-6.65619082-17.74984282-15.53111128-17.74984283h-55.46825813z" fill="#FA5855" p-id="5604"></path></svg>