<?xml version="1.0" standalone="no"?><!DOCTYPE svg PUBLIC "-//W3C//DTD SVG 1.1//EN" "http://www.w3.org/Graphics/SVG/1.1/DTD/svg11.dtd"><svg t="1528463264872" class="icon" style="" viewBox="0 0 1024 1024" version="1.1" xmlns="http://www.w3.org/2000/svg" p-id="4382" xmlns:xlink="http://www.w3.org/1999/xlink" width="176" height="176"><defs><style type="text/css"></style></defs><path d="M237.77338153 443.44334466c37.70616007 0 68.55665534 30.85049529 68.55665388 68.55665534s-30.85049529 68.55665534-68.55665388 68.55665534-68.55665534-30.85049529-68.55665533-68.55665534 30.85049529-68.55665534 68.55665533-68.55665534z m274.22661847 0c37.70616007 0 68.55665534 30.85049529 68.55665534 68.55665534s-30.85049529 68.55665534-68.55665534 68.55665534-68.55665534-30.85049529-68.55665534-68.55665534 30.85049529-68.55665534 68.55665534-68.55665534z m274.22661847 0c37.70616007 0 68.55665534 30.85049529 68.55665533 68.55665534s-30.85049529 68.55665534-68.55665533 68.55665534-68.55665534-30.85049529-68.55665388-68.55665534 30.85049529-68.55665534 68.55665388-68.55665534z" fill="#666666" p-id="4383"></path></svg>