<?xml version="1.0" standalone="no"?><!DOCTYPE svg PUBLIC "-//W3C//DTD SVG 1.1//EN" "http://www.w3.org/Graphics/SVG/1.1/DTD/svg11.dtd"><svg t="1528422572080" class="icon" style="" viewBox="0 0 1024 1024" version="1.1" xmlns="http://www.w3.org/2000/svg" p-id="3966" xmlns:xlink="http://www.w3.org/1999/xlink" width="28" height="28"><defs><style type="text/css"></style></defs><path d="M844.80955057 955.74606679H179.19044943a110.93651622 110.93651622 0 0 1-110.93651622-110.93651622V179.19044943a110.93651622 110.93651622 0 0 1 110.93651622-110.93651622h665.61910114a110.93651622 110.93651622 0 0 1 110.93651622 110.93651622v665.61910114a110.93651622 110.93651622 0 0 1-110.93651622 110.93651622zM179.19044943 112.62854122a66.56191012 66.56191012 0 0 0-66.56190821 66.56190821v665.61910114a66.56191012 66.56191012 0 0 0 66.56190821 66.56190821h665.61910114a66.56191012 66.56191012 0 0 0 66.56190821-66.56190821V179.19044943a66.56191012 66.56191012 0 0 0-66.56190821-66.56190821z" fill="#CCCCCC" p-id="3967"></path></svg>